<svg xmlns="http://www.w3.org/2000/svg" width="388" height="104" viewBox="0 0 388 104" fill="none"><g clip-path="url(#clip0_4502_2120)"><g clip-path="url(#clip1_4502_2120)"><path d="M210.871 21.5975V10.9085C210.871 5.37208 212.901 2.02832 218.608 2.02832C224.259 2.02832 226.289 5.42689 226.289 10.9085V21.5975C226.289 27.1339 224.259 30.6969 218.608 30.6969C212.901 30.6969 210.871 27.1887 210.871 21.5975ZM222.339 22.4198V10.0862C222.339 6.96173 221.735 5.04318 218.608 5.04318C215.425 5.04318 214.822 6.96173 214.822 10.0862V22.4198C214.822 25.5443 215.425 27.6273 218.608 27.6273C221.735 27.6273 222.339 25.5443 222.339 22.4198Z" fill="#142F39"></path><path d="M228.813 2.24707H232.49L236.934 23.0222L241.159 2.24707H244.725L238.525 30.4223H235.068L228.813 2.24707Z" fill="#142F39"></path><path d="M247.962 2.24707H251.803V30.4223H247.962V2.24707Z" fill="#142F39"></path><path d="M256.411 2.24707H267.33V5.1523H260.307V14.471H265.958V17.2666H260.307V27.5719H267.385V30.4223H256.411V2.24707Z" fill="#142F39"></path><path d="M270.567 2.24707H276.713C282.968 2.24707 285.053 5.1523 285.053 10.8531V21.2133C285.053 27.1882 282.913 30.4223 276.987 30.4223H270.567V2.24707ZM276.713 27.5719C280.992 27.5719 281.047 24.9956 281.047 20.4459V11.2917C281.047 6.96122 280.608 5.1523 276.603 5.1523H274.463V27.5719L276.713 27.5719Z" fill="#142F39"></path><path d="M288.399 21.5975V10.9085C288.399 5.37208 290.43 2.02832 296.136 2.02832C301.787 2.02832 303.817 5.42689 303.817 10.9085V21.5975C303.817 27.1339 301.787 30.6969 296.136 30.6969C290.375 30.6969 288.399 27.1887 288.399 21.5975ZM299.812 22.4198V10.0862C299.812 6.96173 299.208 5.04318 296.081 5.04318C292.899 5.04318 292.295 6.96173 292.295 10.0862V22.4198C292.295 25.5443 292.899 27.6273 296.081 27.6273C299.263 27.6273 299.812 25.5443 299.812 22.4198Z" fill="#142F39"></path><path d="M210.871 57.7757V47.8541C210.871 42.1532 212.462 38.4258 218.443 38.4258C223.71 38.4258 225.521 41.4406 225.521 46.5385V48.786H221.79V46.8126C221.79 43.6881 221.735 41.5503 218.443 41.5503C215.096 41.5503 214.767 43.8525 214.767 47.3059V58.3787C214.767 62.5995 215.699 64.0247 218.443 64.0247C221.625 64.0247 221.79 61.7773 221.79 58.4335V56.3505H225.521V58.4335C225.521 63.641 223.93 67.1492 218.443 67.1492C212.517 67.1492 210.871 63.038 210.871 57.7757Z" fill="#142F39"></path><path d="M228.813 57.995V47.3059C228.813 41.7695 230.844 38.4258 236.55 38.4258C242.201 38.4258 244.231 41.8244 244.231 47.3059V57.995C244.231 63.5314 242.201 67.0944 236.55 67.0944C230.789 67.1492 228.813 63.5862 228.813 57.995ZM240.281 58.872V46.5385C240.281 43.414 239.677 41.4955 236.55 41.4955C233.368 41.4955 232.764 43.414 232.764 46.5385V58.872C232.764 61.9965 233.368 64.0795 236.55 64.0795C239.677 64.0247 240.281 61.9965 240.281 58.872Z" fill="#142F39"></path><path d="M248.566 38.6455H252.407L257.4 61.5037L262.393 38.6455H266.234L266.782 66.8208H263.6L263.271 46.3745L258.497 66.8208H256.248L251.529 46.3745L251.2 66.8208H248.018L248.566 38.6455Z" fill="#142F39"></path><path d="M271.556 38.6455H275.396L280.389 61.5037L285.382 38.6455H289.223L289.772 66.8208H286.589L286.26 46.3745L281.487 66.8208H279.237L274.518 46.3745L274.189 66.8208H271.007L271.556 38.6455Z" fill="#142F39"></path><path d="M293.832 57.3377V38.6455H297.618V57.5021C297.618 61.1748 298.057 64.0252 301.404 64.0252C304.696 64.0252 305.19 61.1199 305.19 57.5021V38.6455H308.921V57.3377C308.921 63.2578 307.549 67.1497 301.459 67.1497C295.149 67.1497 293.832 63.2578 293.832 57.3377Z" fill="#142F39"></path><path d="M312.926 38.6455H315.614L323.625 57.3377V38.6455H326.917V66.8208H324.393L316.273 47.5805V66.8208H312.926V38.6455Z" fill="#142F39"></path><path d="M331.526 38.6455H335.367V66.8208H331.526V38.6455Z" fill="#142F39"></path><path d="M343.048 41.5507H338.274V38.6455H351.607V41.5507H346.998V66.8208H343.048L343.048 41.5507Z" fill="#142F39"></path><path d="M358.63 56.8443L352.54 38.6455H356.216L360.551 52.2398L364.776 38.6455H368.452L362.416 56.8443V66.766H358.63V56.8443Z" fill="#142F39"></path><path d="M210.871 75.043H213.56L221.57 93.7351V75.043H224.862V103.218H222.339L214.218 83.9779V103.218H210.871V75.043Z" fill="#142F39"></path><path d="M229.252 75.043H240.171V77.9482H233.148V87.2669H238.799V90.0625H233.148V100.368H240.226V103.163H229.252V75.043Z" fill="#142F39"></path><path d="M242.475 75.043H245.767L248.784 95.27L252.57 75.1526H255.369L259.209 95.3796L262.172 75.043H265.355L260.855 103.218H258.002L254.052 82.3335L250.101 103.218H247.083L242.475 75.043Z" fill="#142F39"></path><path d="M267.989 95.3244L271.446 94.3926C271.665 97.4074 272.434 100.422 275.451 100.422C277.481 100.422 278.524 99.2712 278.524 97.1334C278.524 94.6118 277.262 93.2963 275.451 91.7066L270.733 87.5406C268.867 85.8961 268.044 84.142 268.044 81.2916C268.044 77.1804 270.568 74.7686 274.683 74.7686C279.182 74.7686 281.322 77.1256 281.761 82.059L278.414 82.9361C278.195 80.1405 277.591 77.7834 274.628 77.7834C272.653 77.7834 271.556 78.8249 271.556 80.8531C271.556 82.5524 272.104 83.5391 273.421 84.6902L278.195 88.8562C280.335 90.7199 282.255 93.2415 282.255 96.7497C282.255 100.916 279.457 103.437 275.506 103.437C270.568 103.547 268.264 100.203 267.989 95.3244Z" fill="#142F39"></path><mask id="mask0_4502_2120" style="mask-type:luminance" maskUnits="userSpaceOnUse" x="19" y="0" width="185" height="103"><path d="M202.092 102.615C202.805 99.7646 203.19 95.7631 203.19 91.7067C203.19 50.9786 190.131 0 144.865 0C99.5985 0 19.5459 7.29049 19.5459 48.0186C19.5459 52.0749 39.463 99.7646 40.1214 102.615H202.092Z" fill="white"></path></mask><g mask="url(#mask0_4502_2120)"><path d="M155.673 13.5954C155.673 13.5954 156.716 -1.36928 137.457 1.48113C137.457 1.48113 144.206 6.79826 142.505 10.3065C142.505 10.3065 134.549 2.7419 130.105 1.42632C130.105 1.42632 125.496 9.15534 138.225 18.8577C138.225 18.8577 140.146 20.0637 137.128 19.68C137.128 19.68 127.745 16.8295 126.209 14.2532C126.209 14.2532 126.154 21.5985 133.452 24.7778C133.452 24.7778 130.983 32.5068 123.795 31.5201C123.795 31.5201 135.262 40.6196 139.816 29.492C139.816 29.492 142.231 23.6267 143.054 20.2829C143.109 20.2281 148.211 14.1436 155.673 13.5954Z" fill="#ED1C24" stroke="#DD4B26" stroke-width="2.70871" stroke-linecap="round" stroke-linejoin="round"></path><path opacity="0.24" d="M155.234 13.7049C154.356 18.2546 159.898 0.0557601 139.926 3.07062C139.926 3.07062 145.028 9.15517 143.437 12.3345C143.437 12.3345 143.108 13.8693 138.993 12.773C138.993 12.773 133.122 10.9093 131.696 6.24994C131.696 6.24994 131.476 15.7879 139.432 20.0635C139.432 20.0635 141.188 21.105 138.444 20.7761C138.444 20.7761 129.775 18.3094 128.349 16.0619C128.349 16.0619 128.239 22.585 134.988 25.3806C134.988 25.3806 132.628 32.2874 125.989 31.4652C125.989 31.4652 136.524 39.5231 140.859 29.4918C140.859 29.4918 143.108 24.2295 143.931 21.2694C143.876 21.1598 148.266 14.1982 155.234 13.7049Z" fill="#9C1C1F" stroke="#DD4B26" stroke-width="2.70871" stroke-linejoin="round"></path><path d="M152.491 36.2891C152.491 36.2891 148.102 42.2092 151.01 51.9116C151.01 51.9116 153.205 47.3619 156.058 45.7722C156.058 45.7722 161.051 49.8834 158.637 55.0361C158.637 55.0361 163.3 51.6923 161.819 44.95C161.819 44.95 169.83 42.8122 179.322 54.9813C179.322 54.9813 172.793 42.0996 166.208 37.4951C166.208 37.4951 161.874 36.015 159.734 34.6995C159.734 34.5898 158.362 41.8803 152.491 36.2891Z" stroke="#DD4B26" stroke-width="2.70871" stroke-linecap="round" stroke-linejoin="round"></path><path d="M171.201 68.5752C171.146 68.5752 171.091 68.63 171.036 68.63" stroke="#DD4B26" stroke-width="2.70871" stroke-linecap="round" stroke-linejoin="round"></path><path d="M166.263 37.4403C166.263 37.4403 185.302 47.9649 187.442 72.632C187.442 72.632 185.906 69.7268 183.93 70.4394C183.93 70.4394 194.081 104.754 169.555 121.363C169.555 121.363 160.556 124.652 157.484 132.217C157.484 132.217 158.307 135.56 154.137 140.987C154.137 140.987 150.735 143.728 147.717 141.426C147.717 141.426 145.523 151.567 135.043 151.073C135.043 151.073 127.965 153.321 127.197 149.1C127.197 149.1 122.533 148.004 120.119 144.934C119.844 144.605 119.625 144.221 119.405 143.838C117.375 139.946 113.37 141.481 109.694 138.52C109.694 138.52 105.688 135.396 104.042 136.602C104.042 136.602 98.0617 135.56 103.603 129.037C103.603 129.037 103.384 124.707 100.97 127.228C100.97 127.228 99.5431 129.202 99.2688 131.504C99.2688 131.504 96.5254 128.051 97.4581 126.187C97.4581 126.187 95.0988 126.461 95.5377 129.421C95.5377 129.421 91.7518 125.145 95.2085 121.254C95.2085 121.254 91.2031 122.788 89.7766 124.762C88.35 126.735 89.0633 124.104 89.0633 124.104C89.0633 124.104 85.9358 121.308 88.6243 119.006C88.6243 119.006 85.9907 116.046 84.2898 117.855C84.2898 117.855 84.18 116.265 85.9907 114.73C85.9907 114.73 83.4119 113.141 82.3145 114.237C82.3145 114.237 80.8879 112.922 82.2048 111.496C82.2048 111.496 81.3269 110.071 79.7906 110.455C79.7906 110.455 79.0224 110.619 78.8029 112.044C78.8029 112.044 77.102 110.564 79.6808 107.714C79.6808 107.714 76.9374 106.453 75.8949 107.824C75.8949 107.824 74.3038 104.644 75.7852 102.89C75.7852 102.89 71.6152 94.7775 69.7497 97.1894C69.7497 97.1894 64.9213 96.2027 67.0612 93.7908C67.0612 93.7908 64.9213 94.0101 63.8788 95.3805C63.8788 95.3805 61.6292 95.1064 66.2381 90.4471C66.2381 90.4471 63.9337 88.7478 62.1779 89.4056C62.1779 89.4056 61.5195 88.8574 63.385 86.4455C63.385 86.4455 58.1725 85.2396 60.477 80.0321C60.477 80.0321 56.1973 73.6735 52.3565 77.8943C52.3565 77.8943 50.5459 73.6735 55.3743 67.863C55.3743 67.863 47.8025 63.6422 40.7245 68.1371C40.7245 68.1371 55.9778 54.5976 65.6895 57.7221C65.6895 57.7221 59.3796 38.427 21.9047 54.5976C21.9047 54.5976 54.8804 33.4936 74.633 49.2257C74.633 49.2257 60.0929 12.0606 21.1914 44.1278C21.1914 44.1278 39.9014 16.2266 70.7922 29.3276C70.7922 29.3276 83.5765 35.0284 87.4721 47.8005C87.4721 47.8005 80.8331 6.46942 40.2855 23.846C40.2855 23.846 69.4205 4.71531 82.2048 21.6534C82.2048 21.6534 74.7427 12.2251 68.8718 10.3613C68.8718 10.3613 69.0913 6.7435 80.1746 10.9095C91.258 15.0755 104.317 28.3409 97.074 61.6688C97.074 61.6688 98.1714 70.7134 102.067 74.4409C102.067 74.4409 121.984 93.462 131.092 67.1504C131.092 67.1504 130.16 63.5874 134.659 60.134C134.659 60.134 138.664 50.4864 138.39 37.6596C138.39 37.6596 137.567 33.3291 139.542 30.5883C139.542 30.5883 140.859 27.7927 142.779 21.3793C142.779 21.3793 147.059 12.4991 156.496 13.2666C156.496 13.2666 147.443 12.828 147.717 23.1334C147.717 23.1334 148.595 27.5187 151.832 24.3393C151.832 24.3393 155.399 24.5038 152.875 29.7661C152.875 29.7661 147.278 37.9336 156.332 38.2625C156.332 38.2625 158.581 38.5366 159.843 34.6995C159.733 34.5899 164.123 37.1114 166.263 37.4403Z" fill="#295D6B" stroke="#295D6B" stroke-width="0.0642499" stroke-miterlimit="10"></path><path d="M147.388 21.27C147.388 21.27 147.772 21.9826 147.717 23.0789C147.717 23.0789 147.772 26.3678 150.954 25.2167C150.954 25.2167 150.68 25.4908 151.832 24.2848C151.832 24.2848 154.905 24.9974 153.039 28.5605C153.039 28.5605 150.076 33.3294 152.545 36.2895C153.368 37.2762 154.246 38.208 156.276 38.208C156.276 38.208 159.459 39.2495 159.788 34.645C159.788 34.645 166.262 39.6881 169.774 36.2347C169.774 36.2347 176.632 32.7265 165.823 25.8745C165.823 25.8745 164.945 19.1322 173.231 18.2551C173.231 18.2551 166.317 15.2402 157.868 20.8314C157.868 20.8314 156.386 22.147 155.069 21.1603C155.069 21.1603 155.563 20.1188 157.209 18.0907C157.209 18.0907 158.087 13.4861 159.349 11.8965C159.349 11.8965 158.087 12.0061 157.429 13.6506C157.374 13.5958 148.266 11.2387 147.388 21.27Z" fill="#E61E25" stroke="#DD4B26" stroke-width="2.70871" stroke-linejoin="round"></path><path d="M186.894 71.6999C186.894 71.6999 186.235 49.4447 165.934 37.1112C165.934 37.1112 161.435 37.3852 159.35 34.2607C159.35 34.2607 158.637 41.332 152.053 36.2341C152.053 36.2341 146.676 47.3069 151.394 53.1173C151.394 53.1173 150.132 51.9114 155.564 45.5528C155.564 45.5528 159.405 49.8284 159.076 54.0492C159.076 54.0492 162.203 50.3766 161.435 44.6757C161.435 44.6757 167.086 50.7055 174.603 53.0625C174.658 53.0077 182.065 56.2418 186.894 71.6999Z" fill="#F8951D" stroke="#DD4B26" stroke-width="2.70871" stroke-linejoin="round"></path><path d="M155.509 13.2112C155.509 13.2112 140.859 9.81259 138.061 36.2886C138.061 36.2886 137.293 56.3511 134.659 60.0238C134.659 60.0238 131.147 61.7779 130.873 65.1765C130.873 65.1765 127.197 65.7794 122.533 74.6048C122.533 74.6048 124.673 73.2892 128.294 71.3158C128.294 71.3158 128.624 73.7277 127.965 76.6329C127.965 76.6329 129.721 72.6314 135.866 72.2477C135.866 72.2477 138.171 73.8922 137.073 76.0848C137.073 76.0848 139.378 75.5366 140.64 71.6447C140.64 71.6447 143.657 71.7543 142.45 75.8655C142.45 75.8655 147.718 71.864 146.511 67.7528C146.511 67.7528 149.967 70.7677 148.596 74.1114C148.596 74.1114 154.905 72.0284 152.052 66.9854C152.052 66.9854 158.746 68.6847 158.088 72.9055C158.088 72.9055 162.422 69.3973 159.13 63.5868C159.13 63.5868 169.226 68.2461 168.074 72.4121C168.074 72.4121 170.927 69.5069 167.964 63.9705C167.964 63.9705 177.676 70.384 176.743 74.4403C176.743 74.4403 177.73 67.3143 174.054 62.2164C174.054 62.2164 181.955 64.4091 184.15 73.5085C184.15 73.5085 184.918 72.2477 184.479 70.384C184.479 70.384 185.851 70.3292 186.948 71.6995C186.948 71.6995 186.07 60.1334 174.877 53.2267C174.877 53.2267 164.068 48.5673 161.928 44.8947C161.928 44.8947 162.038 51.9111 159.624 54.1585C159.624 54.1585 158.143 47.5258 156.167 45.7169C156.167 45.7169 151.888 49.1703 152.052 53.2266C152.052 53.2266 146.456 48.0191 152.601 36.2338C152.601 36.2338 150.296 32.2322 153.698 27.2988C153.698 27.2988 153.918 23.681 151.284 24.0647C151.284 24.0647 147.334 27.244 147.004 22.3654C146.895 22.4202 146.346 13.9786 155.509 13.2112Z" fill="#E48625" stroke="#DD4B26" stroke-width="2.70871" stroke-linejoin="round"></path><path opacity="0.17" d="M156.881 13.6506C156.881 13.6506 142.011 6.79864 138.061 36.2895C138.061 36.2895 140.695 57.8321 130.873 65.1774C130.873 65.1774 127.197 65.7804 122.533 74.6057C122.533 74.6057 124.673 73.2901 128.294 71.3167C128.294 71.3167 128.624 73.7286 127.965 76.6339C127.965 76.6339 129.721 72.6323 135.866 72.2486C135.866 72.2486 138.171 73.8931 137.073 76.0857C137.073 76.0857 139.378 75.5376 140.64 71.6456C140.64 71.6456 143.657 71.7553 142.45 75.8664C142.45 75.8664 147.718 71.8649 146.511 67.7537C146.511 67.7537 149.967 70.7686 148.596 74.1123C148.596 74.1123 154.905 72.0293 152.052 66.9863C152.052 66.9863 158.746 68.6856 158.088 72.9064C158.088 72.9064 162.422 69.3982 159.13 63.5877C159.13 63.5877 169.226 68.2471 168.074 72.4131C168.074 72.4131 170.927 69.5078 167.964 63.9714C167.964 63.9714 177.676 70.3849 176.743 74.4413C176.743 74.4413 177.731 67.3152 174.054 62.2174C174.054 62.2174 181.955 64.41 184.15 73.5094C184.15 73.5094 184.918 72.2486 184.479 70.3849C184.479 70.3849 185.851 70.3301 186.948 71.7005C186.948 71.7005 186.07 60.1343 174.877 53.2276C174.877 53.2276 164.068 48.5682 161.928 44.8956C161.928 44.8956 162.038 51.912 159.624 54.1594C159.624 54.1594 158.143 47.5267 156.167 45.7178C156.167 45.7178 151.888 49.1712 152.052 53.2276C152.052 53.2276 146.456 48.0201 152.601 36.2347C152.601 36.2347 150.296 32.2331 153.698 27.2997C153.698 27.2997 153.918 23.6819 151.284 24.0656C151.284 24.0656 147.334 27.2449 147.004 22.3663C146.895 22.4211 150.461 14.7469 156.881 13.6506Z" stroke="#DD4B26" stroke-width="2.70871" stroke-linecap="round" stroke-linejoin="round"></path><path d="M103 74.9347C103 74.9347 94.5503 70.385 99.0495 51.7476C99.0495 51.7476 104.92 24.7783 86.759 11.6225C86.759 11.6225 77.4863 4.05796 67.8295 10.4714C67.8295 10.4714 79.6262 14.2537 81.3819 20.393C81.3819 20.393 68.9269 3.56462 40.56 23.6272C40.56 23.6272 73.5907 14.8567 85.3873 42.429C85.3873 42.429 59.3798 1.59126 21.1367 44.0186C21.1367 44.0186 61.9586 14.0892 73.0968 52.5151C73.0968 52.5151 53.7833 17.7071 22.6182 54.324C22.6182 54.324 55.978 39.14 64.4277 57.1196C64.4277 57.1196 52.247 55.4751 39.6821 68.905C39.6821 68.905 50.4912 62.656 54.8258 68.1924C54.8258 68.1924 50.1071 71.262 51.4788 78.0592C51.4788 78.0592 55.4842 72.1391 59.8188 79.8681C59.8188 79.8681 57.7338 86.9393 62.3976 86.1171C62.3976 86.1171 60.532 86.2815 60.2028 91.5987C60.2028 91.5987 62.0684 89.1868 65.525 91.1053C65.525 91.1053 62.8914 92.5854 61.5745 98.3958C61.5745 98.3958 63.3852 95.7647 67.4454 94.5039C67.4454 94.5039 65.6348 96.3128 64.5923 99.8758C64.5923 99.8758 69.3109 95.4358 75.2367 104.151C75.2367 104.151 73.5358 105.083 74.5783 108.153C74.5783 108.153 76.4438 106.892 79.0226 108.427C79.0226 108.427 76.4987 109.304 77.9252 112.812C77.9252 112.812 77.7606 110.949 81.7111 111.606C81.7111 111.606 80.3394 111.661 81.2173 115.279C81.2173 115.279 82.9182 112.155 85.936 114.402C85.936 114.402 82.9731 114.566 82.9731 117.855C82.9731 117.855 86.759 116.649 87.8564 118.897C87.8564 118.897 86.8139 121.364 89.0086 126.023C89.0086 126.023 88.1307 124.598 94.4406 121.418C94.4406 121.418 85.3324 83.5956 109.584 76.908C109.474 76.9629 107.06 75.9214 103 74.9347Z" fill="#295D6B" stroke="#DD4B26" stroke-width="2.82699" stroke-linecap="round" stroke-linejoin="round"></path><path d="M92.1359 53.4466C92.1359 53.4466 96.9094 39.4138 79.626 18.6387C79.626 18.6387 89.4474 32.1782 92.1359 53.4466Z" fill="#004C4D" stroke="#DD4B26" stroke-width="2.70871" stroke-linejoin="round"></path><path d="M96.5803 70.7678C96.5803 70.7678 96.2511 52.4594 81.9854 54.2683C81.9854 54.2683 95.2086 58.215 93.8917 69.7812L96.5803 70.7678Z" fill="#004C4D" stroke="#DD4B26" stroke-width="2.70871" stroke-linejoin="round"></path><path d="M85.826 69.2334C85.826 69.2334 72.7125 55.4198 59.4893 57.2288C59.4893 57.2288 74.0842 57.8317 85.7162 72.3031C85.7711 72.3031 85.826 69.2334 85.826 69.2334Z" fill="#004C4D" stroke="#DD4B26" stroke-width="2.70871" stroke-linejoin="round"></path><path d="M53.7832 67.1509C53.7832 67.1509 72.2189 66.822 78.3093 83.1571C78.3093 83.1571 64.9214 67.1509 53.7832 67.1509Z" fill="#004C4D" stroke="#DD4B26" stroke-width="2.70871" stroke-linejoin="round"></path><path d="M90.1059 93.7362C90.1059 93.7362 85.4421 89.0768 80.8332 90.228C80.8332 90.228 71.1215 93.9554 66.2383 89.625C66.2383 89.625 70.6277 95.4355 79.2969 91.9273C79.3518 91.9273 86.6492 90.7213 90.1059 93.7362Z" fill="#004C4D" stroke="#DD4B26" stroke-width="2.70871" stroke-linejoin="round"></path><path d="M175.042 61.9424C175.042 61.9424 183.437 65.1217 185.247 75.9204C185.247 75.9204 191.063 112.373 168.019 121.801C168.019 121.801 158.746 126.241 157.484 132.326C157.484 132.326 156.387 146.852 147.718 141.535C147.718 141.535 144.974 152.608 135.043 151.182C135.043 151.182 129.501 154.142 127.197 149.209C127.197 149.209 120.777 147.455 119.406 143.947C119.406 143.947 116.278 140.055 111.614 139.781C111.614 139.781 107.664 136.875 105.689 136.547C105.689 136.547 98.5557 137.424 103.384 128.05C103.384 128.05 102.177 125.309 104.975 117.8C104.975 117.8 103.658 119.225 108.761 127.831C108.761 127.831 107.499 123.72 110.188 114.62C110.188 114.62 108.926 121.801 113.37 127.831C113.37 127.831 113.699 116.758 119.46 107.988C119.46 107.988 113.425 115.771 122.533 126.46C122.533 126.46 118.583 105.466 124.453 94.9963C124.453 94.9963 125.002 86.0613 137.128 74.1115C137.128 74.1115 137.896 75.0433 136.031 77.4004C136.031 77.4004 138.5 75.153 140.64 71.6448C140.64 71.6448 143.493 70.987 142.45 75.8656C142.45 75.8656 147.333 72.467 146.51 67.7528C146.51 67.7528 149.693 68.6299 148.595 74.1115C148.595 74.1115 154.027 75.2626 152.052 66.9854C152.052 66.9854 157.539 69.5069 158.088 72.9055C158.088 72.9055 162.477 69.6714 159.13 63.5869C159.13 63.5869 167.525 67.8625 168.074 72.4122C168.074 72.4122 171.969 68.1914 167.964 63.9706C167.964 63.9706 175.206 69.0684 176.359 72.9055C176.304 72.8507 177.676 68.4106 175.042 61.9424Z" fill="#142F39" stroke="#DD4B26" stroke-width="2.70871" stroke-linejoin="round"></path><path opacity="0.61" d="M112.437 109.414C112.437 109.414 111.724 91.7633 125.386 81.8965C125.386 81.8965 108.597 87.8714 112.437 109.414Z" fill="#F78E1E" stroke="#DD4B26" stroke-width="2.70871" stroke-linejoin="round"></path><path opacity="0.61" d="M106.073 115.881C106.073 115.881 98.2266 101.355 113.754 82.2246C113.754 82.2246 94.1663 96.8604 106.073 115.881Z" fill="#F78E1E" stroke="#DD4B26" stroke-width="2.70871" stroke-linejoin="round"></path><path opacity="0.61" d="M100.147 123.939C100.147 123.939 92.904 111.989 99.7076 96.0927C99.7076 96.0927 101.079 90.5563 104.646 86.1162C104.646 86.1162 86.7039 99.7653 98.6103 125.419C98.6103 125.419 98.1713 125.803 98.2811 127.392C98.2262 127.392 99.6528 125.419 100.147 123.939Z" fill="#F78E1E" stroke="#DD4B26" stroke-width="2.70871" stroke-linejoin="round"></path><path opacity="0.61" d="M119.845 119.992C119.845 119.992 116.059 111.057 121.217 97.4631C121.217 97.4082 112.877 111.222 119.845 119.992Z" fill="#F78E1E" stroke="#DD4B26" stroke-width="2.70871" stroke-linejoin="round"></path><path opacity="0.25" d="M155.673 13.5953C155.673 13.5953 157.045 -1.25978 137.457 1.48101C137.457 1.48101 146.291 3.67364 148.266 12.773C148.266 12.8279 152.82 11.3478 155.673 13.5953Z" fill="#B32225" stroke="#DD4B26" stroke-width="2.70871" stroke-linecap="round" stroke-linejoin="round"></path><path d="M150.352 22.4207C150.955 23.2429 152.107 23.4074 152.93 22.7496C153.754 22.1466 153.863 20.9407 153.26 20.1733C152.656 19.351 151.504 19.1866 150.681 19.8444C149.913 20.4473 149.748 21.5985 150.352 22.4207Z" fill="#010101" stroke="#DD4B26" stroke-width="2.70871" stroke-linecap="round" stroke-linejoin="round"></path><path d="M151.009 21.9274C151.339 22.3659 151.997 22.4755 152.436 22.0918C152.875 21.7629 152.985 21.1051 152.601 20.6666C152.271 20.2281 151.613 20.1185 151.174 20.5022C150.79 20.8311 150.68 21.4888 151.009 21.9274Z" fill="#231F20" stroke="#DD4B26" stroke-width="2.70871" stroke-linejoin="round"></path><path d="M157.429 16.9389C157.429 16.9389 157.758 10.4158 164.233 7.9491C164.233 7.9491 169.116 6.08536 173.396 10.0869C173.396 10.0869 164.123 10.1417 160.392 17.9804C160.392 17.9804 169.006 13.8692 174.877 18.693C174.877 18.693 166.812 18.7478 159.35 21.0501C159.35 21.0501 156.222 22.8042 154.905 21.1597C154.905 21.1597 155.015 20.776 155.399 20.1182C155.509 20.0634 156.826 18.1996 157.429 16.9389Z" fill="#F8951F" stroke="#DD4B26" stroke-width="2.70871" stroke-linejoin="round"></path><path d="M152.93 20.447C152.985 20.721 152.765 20.9951 152.491 21.0499C152.217 21.1047 151.942 20.8855 151.887 20.6114C151.832 20.3373 152.052 20.0633 152.326 20.0084C152.601 19.9536 152.875 20.1181 152.93 20.447Z" fill="white" stroke="#DD4B26" stroke-width="2.70871" stroke-linejoin="round"></path><path d="M171.037 34.6996C171.037 34.6996 161.654 37.2211 158.088 28.2861C158.088 28.2861 158.252 32.781 159.405 34.261C160.557 35.6863 158.966 34.1514 158.966 34.1514C158.966 34.1514 167.196 41.8804 171.037 34.6996Z" fill="#9F1C20" stroke="#DD4B26" stroke-width="2.70871" stroke-linejoin="round"></path><path d="M142.066 20.9951C142.066 20.9951 136.524 32.7805 127.142 31.3553C127.142 31.3553 124.947 31.8486 123.795 31.4649C123.795 31.4649 134.275 39.5228 138.774 31.6842C138.829 31.739 139.871 24.887 142.066 20.9951Z" fill="#B32225" stroke="#DD4B26" stroke-width="2.70871" stroke-linecap="round" stroke-linejoin="round"></path><path d="M155.673 13.5954C155.673 13.5954 156.716 -1.36928 137.457 1.48113C137.457 1.48113 144.206 6.79826 142.505 10.3065C142.505 10.3065 134.549 2.7419 130.105 1.42632C130.105 1.42632 125.496 9.15534 138.225 18.8577C138.225 18.8577 140.146 20.0637 137.128 19.68C137.128 19.68 127.745 16.8295 126.209 14.2532C126.209 14.2532 126.154 21.5985 133.452 24.7778C133.452 24.7778 130.983 32.5068 123.795 31.5201C123.795 31.5201 135.262 40.6196 139.816 29.492C139.816 29.492 142.231 23.6267 143.054 20.2829C143.109 20.2281 148.211 14.1436 155.673 13.5954Z" fill="#ED1C24" stroke="#B5232B" stroke-width="0.979661" stroke-linecap="round" stroke-linejoin="round"></path><path opacity="0.24" d="M155.234 13.7049C154.356 18.2546 159.898 0.0557601 139.926 3.07062C139.926 3.07062 145.028 9.15517 143.437 12.3345C143.437 12.3345 143.108 13.8693 138.993 12.773C138.993 12.773 133.122 10.9093 131.696 6.24994C131.696 6.24994 131.476 15.7879 139.432 20.0635C139.432 20.0635 141.188 21.105 138.444 20.7761C138.444 20.7761 129.775 18.3094 128.349 16.0619C128.349 16.0619 128.239 22.585 134.988 25.3806C134.988 25.3806 132.628 32.2874 125.989 31.4652C125.989 31.4652 136.524 39.5231 140.859 29.4918C140.859 29.4918 143.108 24.2295 143.931 21.2694C143.876 21.1598 148.266 14.1982 155.234 13.7049Z" fill="#9C1C1F"></path><path d="M152.491 36.2891C152.491 36.2891 148.102 42.2092 151.01 51.9116C151.01 51.9116 153.205 47.3619 156.058 45.7722C156.058 45.7722 161.051 49.8834 158.637 55.0361C158.637 55.0361 163.3 51.6923 161.819 44.95C161.819 44.95 169.83 42.8122 179.322 54.9813C179.322 54.9813 172.793 42.0996 166.208 37.4951C166.208 37.4951 161.874 36.015 159.734 34.6995C159.734 34.5898 158.362 41.8803 152.491 36.2891Z" stroke="#EE3426" stroke-width="0.139988" stroke-linecap="round" stroke-linejoin="round"></path><path d="M171.201 68.5752C171.146 68.5752 171.091 68.63 171.036 68.63" stroke="#EE3426" stroke-width="0.069977" stroke-linecap="round" stroke-linejoin="round"></path><path d="M166.263 37.4401C166.263 37.4401 185.302 47.9647 187.442 72.6318C187.442 72.6318 185.906 69.7266 183.931 70.4392C183.931 70.4392 194.081 104.754 169.555 121.363C169.555 121.363 160.557 124.652 157.484 132.216C157.484 132.216 158.307 135.56 154.137 140.987C154.137 140.987 150.735 143.728 147.718 141.426C147.718 141.426 145.523 151.566 135.043 151.073C135.043 151.073 127.965 153.321 127.197 149.1C127.197 149.1 122.533 148.003 120.119 144.934C119.845 144.605 119.625 144.221 119.406 143.837C117.375 139.945 113.37 141.48 109.694 138.52C109.694 138.52 105.689 135.396 104.043 136.602C104.043 136.602 98.0619 135.56 103.604 129.037C103.604 129.037 103.384 124.707 100.97 127.228C100.97 127.228 99.5433 129.202 99.269 131.504C99.269 131.504 96.5256 128.05 97.4583 126.187C97.4583 126.187 95.099 126.461 95.5379 129.421C95.5379 129.421 91.7521 125.145 95.2087 121.253C95.2087 121.253 91.2034 122.788 89.7768 124.762C88.3502 126.735 89.0635 124.104 89.0635 124.104C89.0635 124.104 85.936 121.308 88.6246 119.006C88.6246 119.006 85.9909 116.046 84.29 117.855C84.29 117.855 84.1802 116.265 85.9909 114.73C85.9909 114.73 83.4121 113.141 82.3147 114.237C82.3147 114.237 80.8882 112.921 82.205 111.496C82.205 111.496 81.3271 110.071 79.7908 110.455C79.7908 110.455 79.0226 110.619 78.8032 112.044C78.8032 112.044 77.1023 110.564 79.6811 107.714C79.6811 107.714 76.9376 106.453 75.8952 107.823C75.8952 107.823 74.304 104.644 75.7854 102.89C75.7854 102.89 71.6154 94.7773 69.7499 97.1892C69.7499 97.1892 66.403 96.4766 68.5428 94.0099C68.5428 94.0099 64.9764 94.0099 63.9339 95.3803C63.9339 95.3803 61.6843 95.1062 66.2932 90.4469C66.2932 90.4469 64.7021 90.5565 62.9463 91.2691C62.9463 91.2691 61.5746 88.8572 63.4401 86.5002C63.4401 86.5002 58.2276 85.2942 60.5321 80.0867C60.5321 80.0867 56.2524 73.7281 52.4116 77.9489C52.4116 77.9489 50.6009 73.7281 55.4293 67.9176C55.4293 67.9176 47.8575 63.6968 40.7795 68.1917C40.7795 68.1917 56.0329 54.6522 65.7445 57.7767C65.7445 57.7767 59.4347 38.4816 21.9598 54.6522C21.9598 54.6522 40.2857 36.8919 80.2846 56.1323C80.2846 56.1323 61.9586 8.82629 20.5332 45.3884C20.5332 45.3884 39.9017 16.2812 70.8473 29.3822C70.8473 29.3822 83.6316 35.083 87.5272 47.8551C87.5272 47.8551 80.8882 6.52403 40.3406 23.9006C40.3406 23.9006 69.4756 4.76993 82.2599 21.708C82.2599 21.708 79.4616 11.3478 68.9269 10.4159C68.9269 10.4159 99.269 2.08396 97.0743 61.7235C97.0743 61.7235 98.1716 70.7681 102.067 74.4955C102.067 74.4955 119.241 84.9105 131.093 67.205C131.093 67.205 130.16 63.642 134.659 60.1886C134.659 60.1886 138.664 50.541 138.39 37.7142C138.39 37.7142 137.567 33.3837 139.542 30.6429C139.542 30.6429 140.859 27.8473 142.779 21.4339C142.779 21.4339 147.059 12.5538 156.496 13.3212C156.496 13.3212 147.443 12.8827 147.718 23.188C147.718 23.188 148.595 27.5733 151.833 24.394C151.833 24.394 155.399 24.5584 152.875 29.8207C152.875 29.8207 147.279 37.9883 156.332 38.3171C156.332 38.3171 158.581 38.5912 159.843 34.7541C159.734 34.5897 164.123 37.1112 166.263 37.4401Z" fill="#F8951D"></path><path d="M147.553 19.9544C147.553 19.9544 146.895 22.3663 147.718 23.0789C147.718 23.0789 147.773 26.3678 150.955 25.2167C150.955 25.2167 150.681 25.4908 151.833 24.2848C151.833 24.2848 154.905 24.9974 153.04 28.5605C153.04 28.5605 150.077 33.3294 152.546 36.2895C153.369 37.2762 154.247 38.208 156.277 38.208C156.277 38.208 159.459 39.2495 159.789 34.645C159.789 34.645 166.263 39.6881 169.775 36.2347C169.775 36.2347 177.785 33.165 165.824 25.8745C165.824 25.8745 164.946 19.1322 173.231 18.2551C173.231 18.2551 166.318 15.2402 157.868 20.8314C157.868 20.8314 156.387 22.147 155.07 21.1603C155.07 21.1603 155.564 20.1188 157.21 18.0907C157.21 18.0907 158.088 13.4861 159.35 11.8965C159.35 11.8965 158.088 12.0061 157.429 13.6506C157.374 13.5958 149.473 12.1706 147.553 19.9544Z" fill="#E41E26"></path><path d="M147.498 19.5155C146.894 22.1466 147.278 26.5867 150.954 25.7644V24.7229H150.899V25.7644C152.326 23.1881 153.314 26.6963 152.984 28.0667C152.71 29.163 151.942 30.1497 151.668 31.3008C151.284 33.1646 151.284 35.1927 152.436 36.7824C153.753 38.5913 157.264 39.8521 158.91 37.8239C159.349 37.2757 159.624 35.412 159.953 35.3572C160.556 35.2476 163.409 37.2757 164.123 37.495C167.195 38.4269 172.353 36.7824 172.353 32.8905C172.353 30.643 170.707 28.9986 169.116 27.6282C167.086 25.9289 165.001 24.7229 166.756 21.9822C168.183 19.7347 170.652 19.0221 173.121 18.6384C173.231 18.6384 173.231 17.6517 173.121 17.5969C171.146 16.7747 168.787 16.665 166.702 16.8843C164.507 17.1036 162.367 17.7614 160.392 18.6932C158.471 19.6251 157.154 21.3244 154.96 20.5021V21.5436C155.563 20.3377 156.606 19.4058 157.154 18.2547C158.087 16.391 158.032 14.1435 159.239 12.2798C159.294 12.1701 159.294 11.2383 159.239 11.2383C158.087 11.5124 157.813 12.6635 156.99 12.9376C156.222 13.2116 154.905 12.8828 154.027 13.0472C150.57 13.7598 148.54 16.1169 147.498 19.5155C147.443 19.7347 147.607 20.2829 147.553 20.4473C148.924 16.0072 152.765 13.3213 157.429 14.0887C157.978 13.1568 158.416 12.5539 159.349 12.3346V11.2931C158.362 12.8828 158.032 14.582 157.484 16.2813C156.935 17.871 155.838 19.0221 155.069 20.557C155.015 20.6666 154.96 21.5436 155.069 21.5985C157.209 22.3659 158.636 20.6666 160.501 19.7895C162.477 18.8028 164.617 18.1999 166.811 17.9806C168.896 17.7614 171.256 17.871 173.231 18.6932V17.6517C169.5 18.1999 166.372 20.0088 165.824 23.9555C165.494 26.203 165.714 26.203 167.689 27.5734C169.61 28.8889 173.45 31.6297 171.749 34.2609C171.31 34.9735 170.542 35.2476 169.829 35.6861C166.427 37.8239 162.806 36.3987 159.788 34.0964L159.733 34.2609C159.294 37.3854 157.154 38.5913 154.301 37.3306C149.912 35.3572 152.71 31.0816 153.533 27.9571C153.972 26.3674 152.546 21.8725 150.954 24.7778C150.845 24.9422 151.009 25.7644 150.954 25.8193H151.009C151.119 25.7096 151.009 24.7778 151.009 24.7778C148.43 25.3807 147.059 22.914 147.607 20.5021C147.607 20.2281 147.498 19.4058 147.498 19.5155Z" fill="#E25840"></path><path d="M186.894 71.6999C186.894 71.6999 186.235 49.4447 165.934 37.1112C165.934 37.1112 161.435 37.3852 159.35 34.2607C159.35 34.2607 158.637 41.332 152.053 36.2341C152.053 36.2341 146.676 47.3069 151.394 53.1173C151.394 53.1173 150.132 51.9114 155.564 45.5528C155.564 45.5528 159.405 49.8284 159.076 54.0492C159.076 54.0492 162.203 50.3766 161.435 44.6757C161.435 44.6757 167.086 50.7055 174.603 53.0625C174.658 53.0077 182.065 56.2418 186.894 71.6999Z" fill="#F8951D"></path><path d="M155.509 13.2112C155.509 13.2112 140.859 9.81259 138.061 36.2886C138.061 36.2886 137.293 56.3511 134.659 60.0238C134.659 60.0238 131.147 61.7779 130.873 65.1765C130.873 65.1765 127.197 65.7794 122.533 74.6048C122.533 74.6048 124.673 73.2892 128.294 71.3158C128.294 71.3158 128.624 73.7277 127.965 76.6329C127.965 76.6329 129.721 72.6314 135.866 72.2477C135.866 72.2477 138.171 73.8922 137.073 76.0848C137.073 76.0848 139.378 75.5366 140.64 71.6447C140.64 71.6447 143.657 71.7543 142.45 75.8655C142.45 75.8655 147.718 71.864 146.511 67.7528C146.511 67.7528 149.967 70.7677 148.596 74.1114C148.596 74.1114 154.905 72.0284 152.052 66.9854C152.052 66.9854 158.746 68.6847 158.088 72.9055C158.088 72.9055 162.422 69.3973 159.13 63.5868C159.13 63.5868 169.226 68.2461 168.074 72.4121C168.074 72.4121 170.927 69.5069 167.964 63.9705C167.964 63.9705 177.676 70.384 176.743 74.4403C176.743 74.4403 177.73 67.3143 174.054 62.2164C174.054 62.2164 181.955 64.4091 184.15 73.5085C184.15 73.5085 184.918 72.2477 184.479 70.384C184.479 70.384 185.851 70.3292 186.948 71.6995C186.948 71.6995 186.07 60.1334 174.877 53.2267C174.877 53.2267 164.068 48.5673 161.928 44.8947C161.928 44.8947 162.038 51.9111 159.624 54.1585C159.624 54.1585 158.143 47.5258 156.167 45.7169C156.167 45.7169 151.888 49.1703 152.052 53.2266C152.052 53.2266 146.456 48.0191 152.601 36.2338C152.601 36.2338 150.296 32.2322 153.698 27.2988C153.698 27.2988 153.918 23.681 151.284 24.0647C151.284 24.0647 147.334 27.244 147.004 22.3654C146.895 22.4202 146.346 13.9786 155.509 13.2112Z" fill="#E48625"></path><path opacity="0.17" d="M157.374 13.5956C157.374 13.5956 141.957 6.79848 138.061 36.2893C138.061 36.2893 140.695 57.8319 130.873 65.1772C130.873 65.1772 127.197 65.7802 122.533 74.6055C122.533 74.6055 124.673 73.29 128.294 71.3166C128.294 71.3166 128.624 73.7285 127.965 76.6337C127.965 76.6337 129.721 72.6322 135.866 72.2484C135.866 72.2484 138.171 73.8929 137.073 76.0855C137.073 76.0855 139.378 75.5374 140.64 71.6455C140.64 71.6455 143.657 71.7551 142.45 75.8663C142.45 75.8663 147.718 71.8647 146.511 67.7536C146.511 67.7536 149.967 70.7684 148.596 74.1122C148.596 74.1122 154.905 72.0292 152.052 66.9861C152.052 66.9861 158.746 68.6854 158.088 72.9062C158.088 72.9062 162.422 69.398 159.13 63.5876C159.13 63.5876 169.226 68.2469 168.074 72.4129C168.074 72.4129 170.927 69.5077 167.964 63.9713C167.964 63.9713 177.676 70.3847 176.743 74.4411C176.743 74.4411 177.731 67.315 174.054 62.2172C174.054 62.2172 181.955 64.4098 184.15 73.5092C184.15 73.5092 184.918 72.2485 184.479 70.3847C184.479 70.3847 185.851 70.3299 186.948 71.7003C186.948 71.7003 186.07 60.1342 174.877 53.2274C174.877 53.2274 164.068 48.5681 161.928 44.8954C161.928 44.8954 162.038 51.9118 159.624 54.1593C159.624 54.1593 158.143 47.5266 156.167 45.7176C156.167 45.7176 151.888 49.171 152.052 53.2274C152.052 53.2274 146.456 48.0199 152.601 36.2345C152.601 36.2345 150.296 32.233 153.698 27.2996C153.698 27.2996 153.918 23.6817 151.284 24.0654C151.284 24.0654 147.334 27.2448 147.004 22.3662C146.895 22.421 148.047 12.3349 157.374 13.5956Z" stroke="#F04B2A" stroke-width="0.0677134" stroke-miterlimit="10"></path><path d="M103 74.9342C103 74.9342 94.5502 70.3845 99.0494 51.7471C99.0494 51.7471 105.798 26.4223 86.759 12.1154C86.759 12.1154 74.0844 4.05747 67.8295 10.4709C67.8295 10.4709 80.1748 10.7998 82.3146 22.8593C82.3146 22.8593 73.2614 3.34487 40.5051 23.6815C40.5051 23.6815 75.2367 11.8961 85.3324 42.4833C85.3324 42.4833 58.5019 2.35818 20.2588 44.7855C20.2588 44.7855 61.9037 14.1436 73.0419 52.5694C73.0419 52.5694 53.7283 17.7614 22.5633 54.3783C22.5633 54.3783 55.9231 39.1943 64.3728 57.1739C64.3728 57.1739 53.2345 54.9264 40.6697 68.4111C40.6697 68.4111 48.4061 63.6422 54.7708 68.3015C54.7708 68.3015 50.0522 71.3712 51.4239 78.1683C51.4239 78.1683 55.4841 73.6734 59.7638 79.9772C59.7638 79.9772 57.6789 87.0485 62.3426 86.2262C62.3426 86.2262 60.4771 86.3907 60.1479 91.7078C60.1479 91.7078 63.6046 90.447 66.6772 90.9952C66.6772 90.9952 62.8365 92.6945 61.4648 98.5049C61.4648 98.5049 63.2754 95.8738 67.3356 94.613C67.3356 94.613 66.7321 94.5034 65.6896 98.0116C65.6896 98.0116 69.1463 95.5449 75.0721 104.261C75.0721 104.261 73.3711 105.192 74.4136 108.262C74.4136 108.262 76.2792 107.001 78.858 108.536C78.858 108.536 76.334 109.413 77.7606 112.921C77.7606 112.921 77.596 111.058 81.5465 111.716C81.5465 111.716 80.1748 111.77 81.0527 115.388C81.0527 115.388 82.7536 112.264 85.7713 114.511C85.7713 114.511 82.8085 114.676 82.8085 117.965C82.8085 117.965 86.5944 116.759 87.6917 119.006C87.6917 119.006 86.6492 121.473 88.844 126.132C88.844 126.132 87.9661 124.707 94.2759 121.528C94.2759 121.528 82.3146 87.0484 109.42 77.0172C109.474 76.9624 107.06 75.9209 103 74.9342Z" fill="#142F39"></path><path opacity="0.55" d="M92.1359 53.4466C92.1359 53.4466 96.9094 39.4138 79.626 18.6387C79.626 18.6387 89.4474 32.1782 92.1359 53.4466Z" fill="#004C4D"></path><path opacity="0.55" d="M96.5803 70.7678C96.5803 70.7678 96.2511 52.4594 81.9854 54.2683C81.9854 54.2683 95.2086 58.215 93.8917 69.7812L96.5803 70.7678Z" fill="#004C4D"></path><path opacity="0.55" d="M75.0175 59.6949C75.0175 59.6949 65.7996 33.4382 43.3037 39.7968C43.3037 39.7968 60.9712 35.3567 75.0175 59.6949Z" fill="#004C4D"></path><path opacity="0.55" d="M85.826 69.2334C85.826 69.2334 72.7125 55.4198 59.4893 57.2288C59.4893 57.2288 74.0842 57.8317 85.7162 72.3031C85.7711 72.3031 85.826 69.2334 85.826 69.2334Z" fill="#004C4D"></path><path opacity="0.55" d="M53.7832 67.1509C53.7832 67.1509 72.2189 66.822 78.3093 83.1571C78.3093 83.1571 64.9214 67.1509 53.7832 67.1509Z" fill="#004C4D"></path><path opacity="0.55" d="M90.1059 93.7362C90.1059 93.7362 85.4421 89.0768 80.8332 90.228C80.8332 90.228 71.1215 93.9554 66.2383 89.625C66.2383 89.625 70.6277 95.4355 79.2969 91.9273C79.3518 91.9273 86.6492 90.7213 90.1059 93.7362Z" fill="#004C4D"></path><path d="M175.042 61.9424C175.042 61.9424 183.437 65.1217 185.247 75.9204C185.247 75.9204 191.063 112.373 168.019 121.801C168.019 121.801 158.746 126.241 157.484 132.326C157.484 132.326 156.387 146.852 147.718 141.535C147.718 141.535 144.974 152.608 135.043 151.182C135.043 151.182 129.501 154.142 127.197 149.209C127.197 149.209 120.777 147.455 119.406 143.947C119.406 143.947 116.278 140.055 111.614 139.781C111.614 139.781 107.664 136.875 105.689 136.547C105.689 136.547 98.5557 137.424 103.384 128.05C103.384 128.05 102.177 125.309 104.975 117.8C104.975 117.8 103.658 119.225 108.761 127.831C108.761 127.831 107.499 123.72 110.188 114.62C110.188 114.62 108.926 121.801 113.37 127.831C113.37 127.831 113.699 116.758 119.46 107.988C119.46 107.988 113.425 115.771 122.533 126.46C122.533 126.46 118.583 105.466 124.453 94.9963C124.453 94.9963 125.002 86.0613 137.128 74.1115C137.128 74.1115 137.896 75.0433 136.031 77.4004C136.031 77.4004 138.5 75.153 140.64 71.6448C140.64 71.6448 143.493 70.987 142.45 75.8656C142.45 75.8656 147.333 72.467 146.51 67.7528C146.51 67.7528 149.693 68.6299 148.595 74.1115C148.595 74.1115 154.027 75.2626 152.052 66.9854C152.052 66.9854 157.539 69.5069 158.088 72.9055C158.088 72.9055 162.477 69.6714 159.13 63.5869C159.13 63.5869 167.525 67.8625 168.074 72.4122C168.074 72.4122 171.969 68.1914 167.964 63.9706C167.964 63.9706 175.206 69.0684 176.359 72.9055C176.304 72.8507 177.676 68.4106 175.042 61.9424Z" fill="#142F39"></path><path opacity="0.61" d="M112.437 109.414C112.437 109.414 111.724 91.7633 125.386 81.8965C125.386 81.8965 108.597 87.8714 112.437 109.414Z" fill="#F78E1E"></path><path opacity="0.61" d="M106.073 115.881C106.073 115.881 98.2266 101.355 113.754 82.2246C113.754 82.2246 94.1663 96.8604 106.073 115.881Z" fill="#F78E1E"></path><path opacity="0.61" d="M100.147 123.939C100.147 123.939 92.904 111.989 99.7076 96.0927C99.7076 96.0927 101.079 90.5563 104.646 86.1162C104.646 86.1162 86.7039 99.7653 98.6103 125.419C98.6103 125.419 98.1713 125.803 98.2811 127.392C98.2262 127.392 99.6528 125.419 100.147 123.939Z" fill="#F78E1E"></path><path opacity="0.61" d="M118.308 108.81C118.308 108.81 116.223 99.327 123.795 86.8838C123.795 86.8838 113.041 98.9432 118.308 108.81Z" fill="#F78E1E"></path><path opacity="0.25" d="M155.673 13.5953C155.673 13.5953 157.045 -1.25978 137.457 1.48101C137.457 1.48101 146.291 3.67364 148.266 12.773C148.266 12.8279 152.82 11.3478 155.673 13.5953Z" fill="#B32225" stroke="#EE3426" stroke-width="0.139988" stroke-linecap="round" stroke-linejoin="round"></path><path d="M150.352 22.4207C150.955 23.2429 152.107 23.4074 152.93 22.7496C153.754 22.1466 153.863 20.9407 153.26 20.1733C152.656 19.351 151.504 19.1866 150.681 19.8444C149.913 20.4473 149.748 21.5985 150.352 22.4207Z" fill="#010101" stroke="white" stroke-width="0.100417" stroke-linecap="round" stroke-linejoin="round"></path><path d="M151.009 21.9274C151.339 22.3659 151.997 22.4755 152.436 22.0918C152.875 21.7629 152.985 21.1051 152.601 20.6666C152.271 20.2281 151.613 20.1185 151.174 20.5022C150.79 20.8311 150.68 21.4888 151.009 21.9274Z" fill="#231F20"></path><path d="M157.429 16.9389C157.429 16.9389 157.758 10.4158 164.233 7.9491C164.233 7.9491 169.116 6.08536 173.396 10.0869C173.396 10.0869 163.19 11.1284 159.459 18.9671C159.459 18.9671 169.061 13.8692 174.932 18.6382C174.932 18.6382 166.866 18.693 159.404 20.9952C159.404 20.9952 156.277 22.7493 154.96 21.1049C154.96 21.1049 155.07 20.7212 155.454 20.0634C155.509 20.0634 156.825 18.1996 157.429 16.9389Z" fill="#F8951F"></path><path opacity="0.65" d="M152.93 20.447C152.985 20.721 152.765 20.9951 152.491 21.0499C152.217 21.1047 151.942 20.8855 151.887 20.6114C151.832 20.3373 152.052 20.0633 152.326 20.0084C152.601 19.9536 152.875 20.1181 152.93 20.447Z" fill="white"></path><path d="M171.037 34.6996C171.037 34.6996 161.654 37.2211 158.088 28.2861C158.088 28.2861 158.252 32.781 159.405 34.261C160.557 35.6863 158.966 34.1514 158.966 34.1514C158.966 34.1514 167.196 41.8804 171.037 34.6996Z" fill="#9F1C20"></path><path d="M142.066 20.9951C142.066 20.9951 136.524 32.7805 127.142 31.3553C127.142 31.3553 124.947 31.8486 123.795 31.4649C123.795 31.4649 134.275 39.5228 138.774 31.6842C138.829 31.739 139.871 24.887 142.066 20.9951Z" fill="#B32225" stroke="#EE3426" stroke-width="0.139988" stroke-linecap="round" stroke-linejoin="round"></path></g></g></g><defs><clipPath id="clip0_4502_2120"><rect width="387.925" height="103.821" fill="white" transform="translate(0.0371094)"></rect></clipPath><clipPath id="clip1_4502_2120"><rect width="348.906" height="103.821" fill="white" transform="translate(19.5459)"></rect></clipPath></defs></svg>